<mxfile host="app.diagrams.net" modified="2023-05-04T07:03:13.568Z" agent="Mozilla/5.0 (Windows NT 10.0; Win64; x64) AppleWebKit/537.36 (KHTML, like Gecko) Chrome/112.0.0.0 Safari/537.36" version="21.2.7" etag="jYJy1iJlyAV1JjpFPvsk" type="github">
  <diagram name="Page-1" id="ZKx8B9LJFWfWBuWX_Kn6">
    <mxGraphModel>
      <root>
        <mxCell id="0" />
        <mxCell id="1" parent="0" />
      </root>
    </mxGraphModel>
  </diagram>
</mxfile>
